<?xml version="1.0" encoding="UTF-8"?>
<svg width="512" height="512" viewBox="0 0 512 512" xmlns="http://www.w3.org/2000/svg" role="img" aria-labelledby="title desc">
  <title id="title">Icône Éducation Animée</title>
  <desc id="desc">Icône circulaire avec un chapeau de diplômé et un livre ouvert, avec animation de couleur vert et gris.</desc>

  <defs>
    <linearGradient id="bg" x1="0" y1="0" x2="1" y2="1">
      <stop offset="0%" stop-color="#e8f0ff"/>
      <stop offset="100%" stop-color="#cfe0ff"/>
    </linearGradient>
    <filter id="soft" x="-20%" y="-20%" width="140%" height="140%">
      <feDropShadow dx="0" dy="10" stdDeviation="12" flood-color="#000000" flood-opacity="0.15"/>
    </filter>
  </defs>

  <circle cx="256" cy="256" r="224" fill="url(#bg)"/>

  <!-- Book base -->
  <g filter="url(#soft)">
    <path d="M138 330c0-24 20-44 44-44h72c18 0 34 6 46 16 12-10 28-16 46-16h72c24 0 44 20 44 44v34c0 8-6 14-14 14H244c-8 0-14-6-14-14 0 8-6 14-14 14H152c-7.7 0-14-6.3-14-14V330z"
          fill="#ffffff">
      <animate attributeName="fill" values="#ffffff;#4CAF50;#9E9E9E;#ffffff" dur="6s" repeatCount="indefinite"/>
    </path>
  </g>

  <!-- Graduation cap -->
  <g transform="translate(0,-10)">
    <!-- Top -->
    <path d="M256 142l140 52-140 52-140-52 140-52z" fill="#4CAF50" filter="url(#soft)">
      <animate attributeName="fill" values="#4CAF50;#9E9E9E;#4CAF50" dur="4s" repeatCount="indefinite"/>
    </path>
    <!-- Band -->
    <path d="M194 206l62 22 62-22v38c0 20-28 36-62 36s-62-16-62-36v-38z" fill="#2E7D32">
      <animate attributeName="fill" values="#2E7D32;#616161;#2E7D32" dur="4s" repeatCount="indefinite"/>
    </path>
    <!-- Tassel -->
    <path d="M396 194v58" stroke="#2E7D32" stroke-width="6" stroke-linecap="round">
      <animate attributeName="stroke" values="#2E7D32;#757575;#2E7D32" dur="4s" repeatCount="indefinite"/>
    </path>
    <circle cx="396" cy="252" r="8" fill="#ffcc4d"/>
    <path d="M396 194l-40-14" stroke="#ffcc4d" stroke-width="6" stroke-linecap="round"/>
  </g>
</svg>
